<?xml version="1.0" encoding="iso-8859-1"?>
<!-- Generator: Adobe Illustrator 19.0.0, SVG Export Plug-In . SVG Version: 6.00 Build 0)  -->
<svg version="1.1" id="Layer_1" xmlns="http://www.w3.org/2000/svg" xmlns:xlink="http://www.w3.org/1999/xlink" x="0px" y="0px"
	 viewBox="0 0 473.931 473.931" style="enable-background:new 0 0 473.931 473.931;" xml:space="preserve">
<circle style="fill:#F5C82D;" cx="236.966" cy="236.966" r="236.966"/>
<path style="fill:#CEA16F;" d="M274.817,313.197c-1.186,14.6-15.061,24.741-30.974,22.645l0,0
	c-15.925-2.099-27.865-15.637-26.675-30.241l4.992-61.159c1.182-14.604,15.053-24.744,30.978-22.649l0,0
	c15.925,2.092,27.857,15.633,26.671,30.233L274.817,313.197z"/>
<g>
	<path style="fill:#D6A972;" d="M295.158,220.214c2.166,24.617-17.605,44.83-44.153,45.159l0,0
		c-26.559,0.329-49.825-19.36-51.995-43.977l-9.048-103.1c-2.163-24.613,17.605-44.834,44.16-45.163l0,0
		c26.548-0.326,49.822,19.36,51.988,43.973L295.158,220.214z"/>
	<path style="fill:#D6A972;" d="M387.916,355.179l-36.987,16.527l26.413,56.138c8.819-6.496,17.16-13.605,24.991-21.238
		L387.916,355.179z"/>
	<polygon style="fill:#D6A972;" points="338.36,344.994 341.069,350.749 338.102,341.144 	"/>
	<path style="fill:#D6A972;" d="M84.972,418.744l56.923-36.714l-38.057-26.054l-41.077,41.593
		C69.702,405.102,77.118,412.177,84.972,418.744z"/>
</g>
<path style="fill:#DE6A35;" d="M369.465,270.144l-91.318,16.976l-74.072,12.711l-63.793,10.533l-40.224,43.03l3.779,2.582
	l38.057,26.054l6.002,4.108l16.329-12.164l-0.954,88.216c23.195,7.585,47.943,11.742,73.672,11.742
	c39.03,0,75.819-9.493,108.279-26.207l-6.87-102.734l9.59,28.048l2.978-1.332l36.987-16.527l4-1.785L369.465,270.144z"/>
<path style="fill:#66321C;" d="M290.997,118.494l-19.09,12.733l-37.41,38.548l-11.82,26.529l-11.824-20.834l-14.398,54.54
	l-10.574-16.845l-6.937,19.73l-4.539-102.086c0,0,5.841-102.76,77.986-67.116C335.509,104.762,295.019,86.622,290.997,118.494z"/>
<g>
</g>
<g>
</g>
<g>
</g>
<g>
</g>
<g>
</g>
<g>
</g>
<g>
</g>
<g>
</g>
<g>
</g>
<g>
</g>
<g>
</g>
<g>
</g>
<g>
</g>
<g>
</g>
<g>
</g>
</svg>
